<svg xmlns="http://www.w3.org/2000/svg" width="45" height="45"><path data-name="Forma 1" d="M45 0H0v38.87h17.178L13.236 45h18.528l-3.942-6.13H45V0zM16.746 43.08l2.709-4.21h6.089l2.71 4.21H16.746zm26.339-6.12H1.915V1.91h41.17v35.05zM40.072 5.51H4.928v27.48h35.143V5.51zm-1.915 25.57H6.843V7.43h31.314v23.65zm-9.018-11.72l-3.737-3.6 1.33-1.38 5.166 4.98-4.938 4.77-1.33-1.38zm-9.77 3.39l-3.508-3.39 3.737-3.6-1.33-1.38-5.165 4.98 4.937 4.77zm5.938-10.13l-1.848-.5-3.766 13.76 1.848.51z" fill="#26af5f" fill-rule="evenodd"/></svg>