<svg xmlns="http://www.w3.org/2000/svg" width="55" height="45"><path d="M53.9 0H1.1A1.1 1.1 0 0 0 0 1.1v34.88a1.105 1.105 0 0 0 1.1 1.11h19.31v5.7h-3.88a1.105 1.105 0 0 0 0 2.21h21.94a1.105 1.105 0 0 0 0-2.21h-3.88v-5.7H53.9a1.105 1.105 0 0 0 1.1-1.11V1.1A1.1 1.1 0 0 0 53.9 0zM32.39 42.79h-9.78v-5.7h9.78v5.7zm20.42-7.91H2.19V2.2h50.62v32.68zM25.64 4.78H5.99a1.105 1.105 0 0 0-1.1 1.11v14.25a1.1 1.1 0 0 0 1.1 1.1h19.65a1.1 1.1 0 0 0 1.09-1.1V5.89a1.1 1.1 0 0 0-1.09-1.11zM8.68 19.04l3.49-3.51 3.48 3.51H8.68zm15.86 0h-5.81a.436.436 0 0 0-.09-.11l-1.88-1.89 4.26-4.29 3.52 3.54v2.75zm0-5.87l-2.74-2.76a1.092 1.092 0 0 0-1.55 0l-5.04 5.07-2.27-2.29a1.092 1.092 0 0 0-1.55 0l-4.31 4.34V6.99h17.46v6.18zm25.44-6.4l-1.98-2a2.6 2.6 0 0 0-3.67 0L30.12 19.08a1.2 1.2 0 0 0-.28.47l-1.54 5.12H5.99a1.105 1.105 0 0 0 0 2.21h23.16a1.138 1.138 0 0 0 .45-.1l5.7-1.74h.01a1.046 1.046 0 0 0 .45-.27l14.22-14.31a2.619 2.619 0 0 0 0-3.69zM30.76 24.12l.65-2.17 1.51 1.51zm4.23-1.69l-2.55-2.56 11.12-11.2 2.55 2.56zM48.43 8.9l-.77.77-2.55-2.56.77-.78a.417.417 0 0 1 .57 0l1.98 2a.407.407 0 0 1 .12.28.427.427 0 0 1-.12.29zm-4.17 21.08H5.99a1.1 1.1 0 1 0 0 2.2h38.27a1.1 1.1 0 0 0 0-2.2zm4.87 0h-.59a1.1 1.1 0 1 0 0 2.2h.59a1.1 1.1 0 0 0 0-2.2z" fill="#26af5f" fill-rule="evenodd"/></svg>